HIERARCHY
ROOT Hips
{
	OFFSET 0.000000 0.000000 0.000000
	CHANNELS 6 Xposition Yposition Zposition Yrotation Xrotation Zrotation
	JOINT Chest
	{
		OFFSET 0.000000 -0.009281 11.569106
		CHANNELS 3 Yrotation Xrotation Zrotation
		JOINT Chest2
		{
			OFFSET -0.000000 0.016865 9.269641
			CHANNELS 3 Yrotation Xrotation Zrotation
			JOINT Chest3
			{
				OFFSET -0.000000 0.000001 8.374491
				CHANNELS 3 Yrotation Xrotation Zrotation
				JOINT Chest4
				{
					OFFSET -0.000000 0.000001 8.374493
					CHANNELS 3 Yrotation Xrotation Zrotation
					JOINT Neck
					{
						OFFSET -0.000000 0.000002 12.152554
						CHANNELS 3 Yrotation Xrotation Zrotation
						JOINT Head
						{
							OFFSET -0.000000 0.040101 7.802319
							CHANNELS 3 Yrotation Xrotation Zrotation
							End Site
							{
								OFFSET -0.000000 0.020947 14.853096
							}
						}
					}
					JOINT RightCollar
					{
						OFFSET 2.894404 0.000001 6.791374
						CHANNELS 3 Yrotation Xrotation Zrotation
						JOINT RightShoulder
						{
							OFFSET 13.574684 0.000001 0.000000
							CHANNELS 3 Yrotation Xrotation Zrotation
							JOINT RightElbow
							{
								OFFSET 23.923903 0.000002 0.000000
								CHANNELS 3 Yrotation Xrotation Zrotation
								JOINT RightWrist
								{
									OFFSET 19.846718 0.012767 0.000000
									CHANNELS 3 Yrotation Xrotation Zrotation
									End Site
									{
										OFFSET 14.973145 0.000001 0.000000
									}
								}
							}
						}
					}
					JOINT LeftCollar
					{
						OFFSET -2.894404 0.000001 6.791374
						CHANNELS 3 Yrotation Xrotation Zrotation
						JOINT LeftShoulder
						{
							OFFSET -13.574684 -0.000001 0.000000
							CHANNELS 3 Yrotation Xrotation Zrotation
							JOINT LeftElbow
							{
								OFFSET -23.923903 -0.000002 0.000000
								CHANNELS 3 Yrotation Xrotation Zrotation
								JOINT LeftWrist
								{
									OFFSET -19.846718 0.012763 0.000000
									CHANNELS 3 Yrotation Xrotation Zrotation
									End Site
									{
										OFFSET -14.973145 -0.000001 0.000000
									}
								}
							}
						}
					}
				}
			}
		}
	}
	JOINT RightHip
	{
		OFFSET 9.469263 0.004643 0.045487
		CHANNELS 3 Yrotation Xrotation Zrotation
		JOINT RightKnee
		{
			OFFSET 0.000000 0.002661 -40.478676
			CHANNELS 3 Yrotation Xrotation Zrotation
			JOINT RightAnkle
			{
				OFFSET 0.000000 0.049106 -35.224068
				CHANNELS 3 Yrotation Xrotation Zrotation
				JOINT RightToe
				{
					OFFSET -0.000001 12.539529 -6.151390
					CHANNELS 3 Yrotation Xrotation Zrotation
					End Site
					{
						OFFSET -0.000001 5.044994 -1.291870
					}
				}
			}
		}
	}
	JOINT LeftHip
	{
		OFFSET -9.469263 0.004641 0.045487
		CHANNELS 3 Yrotation Xrotation Zrotation
		JOINT LeftKnee
		{
			OFFSET 0.000000 0.002661 -40.478676
			CHANNELS 3 Yrotation Xrotation Zrotation
			JOINT LeftAnkle
			{
				OFFSET 0.000000 0.049106 -35.224068
				CHANNELS 3 Yrotation Xrotation Zrotation
				JOINT LeftToe
				{
					OFFSET -0.000001 12.539529 -6.151390
					CHANNELS 3 Yrotation Xrotation Zrotation
					End Site
					{
						OFFSET -0.000001 5.044994 -1.291870
					}
				}
			}
		}
	}
}
MOTION
Frames: 9
Frame Time: 0.016667
10.144068 5.335763 83.074974 -8.335070 -2.043426 -99.955652 -0.132079 -5.404063 2.944529 -0.012333 -2.403292 1.221823 -0.012333 -2.403293 1.221823 -0.004441 -1.802503 0.916184 4.487568 -21.734019 -6.146561 6.379138 -4.084255 -9.850786 4.807307 0.539375 0.845838 49.448118 -20.007135 48.718315 -11.646016 -39.292347 10.700642 -36.801568 8.772936 48.180588 -10.227631 2.619519 -10.218167 -83.704235 -0.077640 -19.702266 -84.437421 -11.023768 -32.432627 57.815352 63.161027 -8.518227 -0.609911 -10.929546 -5.713416 2.491185 -5.542763 -9.044029 -1.116427 6.763525 1.527810 0.001106 0.118908 -0.027773 -0.727340 -8.808407 -5.516655 1.546637 -4.969758 -0.963677 0.203396 5.040678 -2.834730 0.070417 -0.062449 0.034101 
10.158504 5.337190 83.078712 -8.300687 -2.012074 -99.830407 -0.162041 -5.375568 2.984556 -0.025800 -2.390708 1.238320 -0.025799 -2.390708 1.238319 -0.014500 -1.793092 0.928504 4.505270 -21.683742 -6.209494 6.390865 -3.990352 -9.958870 4.838188 0.588089 0.861080 49.192689 -19.989419 48.821294 -11.545889 -39.109994 10.199572 -36.155863 7.660676 47.370094 -10.186875 2.592000 -10.239395 -83.558888 0.001276 -19.759507 -85.095531 -11.739204 -32.638192 57.977214 63.019833 -7.837336 -0.608113 -10.946443 -5.754326 2.490755 -5.468357 -9.084543 -1.111656 6.735411 1.482106 -0.002601 0.122255 -0.027547 -0.728243 -8.804220 -5.542755 1.549329 -4.887365 -0.979327 0.173595 4.978720 -2.902653 0.081342 -0.055871 0.034142 
10.176823 5.336729 83.082001 -8.266018 -1.984071 -99.717695 -0.182631 -5.329855 3.013791 -0.035401 -2.370390 1.249742 -0.035401 -2.370390 1.249742 -0.021698 -1.777874 0.937036 4.504246 -21.650352 -6.259131 6.373282 -3.928557 -10.048516 4.842904 0.612166 0.873878 48.939883 -20.059110 48.961887 -11.512201 -38.977793 9.660457 -35.504628 6.722323 46.657791 -10.184322 2.556844 -10.249613 -83.433370 0.142968 -19.799252 -85.743306 -12.356104 -32.823676 57.795947 62.757834 -7.130335 -0.600812 -10.970716 -5.791811 2.480430 -5.380331 -9.114849 -1.103884 6.700520 1.447344 -0.004767 0.125105 -0.026596 -0.715795 -8.810455 -5.549135 1.540436 -4.788022 -0.995831 0.137706 4.912416 -2.993155 0.095360 -0.051681 0.033629 
10.196722 5.334222 83.084351 -8.229684 -1.956858 -99.618862 -0.212089 -5.292267 3.053341 -0.049136 -2.353689 1.265859 -0.049136 -2.353689 1.265860 -0.031970 -1.765378 0.949071 4.503611 -21.612286 -6.305469 6.357067 -3.858118 -10.132049 4.863534 0.659394 0.873491 48.716816 -20.060585 49.089867 -11.481577 -38.899396 9.197662 -34.912082 5.792095 45.899534 -10.161631 2.549201 -10.261278 -83.302852 0.283203 -19.841928 -86.396634 -12.933807 -32.983277 57.456514 62.678454 -6.481488 -0.591751 -10.997696 -5.826107 2.468775 -5.284399 -9.137868 -1.098713 6.665193 1.407398 -0.006522 0.125010 -0.026749 -0.702552 -8.822233 -5.527906 1.525992 -4.682074 -1.032242 0.103847 4.847415 -3.068820 0.109728 -0.048943 0.034172 
10.216645 5.331720 83.086159 -8.189449 -1.931595 -99.532255 -0.251344 -5.263624 3.104011 -0.066483 -2.341247 1.287064 -0.066483 -2.341247 1.287065 -0.044922 -1.756085 0.964910 4.512334 -21.564784 -6.353724 6.356702 -3.769786 -10.216255 4.893227 0.704867 0.861317 48.588774 -19.945681 49.198587 -11.482583 -38.892467 8.862840 -34.294694 4.771594 45.064953 -10.128049 2.546470 -10.294543 -83.177040 0.454851 -19.930427 -86.968334 -13.580623 -33.078914 57.448940 62.669943 -5.724844 -0.584037 -11.019882 -5.843541 2.458470 -5.187044 -9.176510 -1.092185 6.628244 1.378243 -0.007936 0.124159 -0.026472 -0.685822 -8.830086 -5.498303 1.507981 -4.578809 -1.066654 0.068909 4.786159 -3.136448 0.122376 -0.048113 0.033897 
10.235089 5.328150 83.087845 -8.146603 -1.906297 -99.455231 -0.289418 -5.234228 3.153148 -0.083720 -2.328811 1.308009 -0.083720 -2.328811 1.308008 -0.057795 -1.746797 0.980552 4.521792 -21.513856 -6.398078 6.358551 -3.675081 -10.293174 4.922135 0.757904 0.842172 48.492455 -19.805708 49.293919 -11.512504 -38.957982 8.613584 -33.704685 3.730362 44.277535 -10.099147 2.538938 -10.330572 -83.051870 0.643444 -20.055640 -87.381656 -14.283924 -33.145392 57.286839 62.482652 -5.123618 -0.574756 -11.038995 -5.860539 2.441528 -5.086764 -9.217763 -1.080604 6.588958 1.380616 -0.010421 0.122395 -0.026007 -0.674496 -8.835178 -5.477754 1.499687 -4.477538 -1.086011 0.026160 4.724689 -3.214476 0.133324 -0.046536 0.033876 
10.251442 5.325206 83.089790 -8.100807 -1.880251 -99.383002 -0.322450 -5.200711 3.196120 -0.098350 -2.314748 1.326502 -0.098350 -2.314748 1.326501 -0.068727 -1.736285 0.994368 4.524990 -21.460161 -6.438306 6.350064 -3.575549 -10.364415 4.937705 0.810522 0.816026 48.340514 -19.690851 49.428559 -11.553548 -39.054407 8.404763 -33.084378 2.738000 43.549392 -10.077160 2.539616 -10.372435 -82.891545 0.796311 -20.143276 -87.655786 -15.002340 -33.328427 56.894431 62.231998 -4.428415 -0.564874 -11.055029 -5.874791 2.422599 -4.981667 -9.261904 -1.065802 6.546417 1.377894 -0.015121 0.119808 -0.026818 -0.667750 -8.835577 -5.486838 1.494140 -4.379222 -1.075151 -0.017923 4.661848 -3.278529 0.141855 -0.044058 0.034868 
10.260872 5.326262 83.092316 -8.054343 -1.852685 -99.307187 -0.354412 -5.161185 3.227713 -0.111929 -2.298797 1.341283 -0.111929 -2.298797 1.341284 -0.078888 -1.724354 1.005407 4.519852 -21.410447 -6.470505 6.328948 -3.483746 -10.423605 4.946318 0.856991 0.777716 48.122313 -19.639545 49.607483 -11.601814 -39.072394 8.210611 -32.403654 1.695515 42.743990 -10.037827 2.483786 -10.408419 -82.689965 0.863056 -20.268716 -87.950905 -15.660326 -33.619817 56.620363 62.083039 -3.520434 -0.558167 -11.067028 -5.888143 2.404185 -4.872132 -9.308956 -1.048599 6.496858 1.366783 -0.020423 0.117051 -0.027107 -0.659562 -8.836895 -5.530262 1.488470 -4.285585 -1.048727 -0.062002 4.602159 -3.327769 0.146419 -0.039320 0.034739 
10.273682 5.329899 83.095871 -8.011446 -1.824134 -99.233524 -0.386913 -5.116216 3.257115 -0.125151 -2.279145 1.352831 -0.125151 -2.279145 1.352832 -0.088804 -1.709646 1.014024 4.507503 -21.371387 -6.495352 6.297414 -3.412037 -10.471728 4.947343 0.875357 0.732457 47.877372 -19.640960 49.823033 -11.659203 -38.987809 7.988580 -31.758942 0.712574 41.869838 -9.997210 2.387135 -10.432524 -82.515611 0.935236 -20.463515 -88.174969 -16.209062 -33.888841 56.295304 61.922932 -2.464734 -0.559496 -11.086907 -5.898693 2.392601 -4.757512 -9.346540 -1.031062 6.443937 1.353242 -0.026620 0.117032 -0.028153 -0.667564 -8.827165 -5.573278 1.496770 -4.191916 -1.029000 -0.107523 4.529121 -3.407830 0.150296 -0.037878 0.034447 
